<mxfile host="app.diagrams.net" modified="2024-04-18T18:26:57.600Z" agent="Mozilla/5.0 (X11; Linux x86_64; rv:109.0) Gecko/20100101 Firefox/119.0" version="24.2.5" etag="LMS5-YuOIfM9XyabSJnq" type="github">
  <diagram name="Page-1" id="V5OqzNRoas0AnMWqN8iM">
    <mxGraphModel>
      <root>
        <mxCell id="0" />
        <mxCell id="1" parent="0" />
      </root>
    </mxGraphModel>
  </diagram>
</mxfile>
